<svg width="50" height="50" viewBox="0 0 50 50" fill="none" xmlns="http://www.w3.org/2000/svg">
  <defs></defs>
  <rect style="fill: rgb(236, 235, 232);" x="0" y="0" width="50" height="50" rx="5" ry="5"></rect>
  <path d="M 14.967 7.553 C 8.57 7.976 3.501 13.339 3.501 19.901 L 9.758 19.901 C 9.758 16.832 12.031 14.256 15.002 13.868 L 15.002 7.553 L 14.967 7.553 Z" fill="#242424"></path>
  <path d="M 16.61 7.553 L 16.61 13.868 C 19.547 14.292 21.784 16.832 21.784 19.901 L 28.042 19.901 C 28.042 13.339 22.973 7.976 16.61 7.553 Z" fill="#242424"></path>
  <path d="M 33.355 7.553 C 26.958 7.976 21.889 13.339 21.889 19.901 L 28.146 19.901 C 28.146 16.832 30.419 14.256 33.39 13.868 L 33.39 7.553 L 33.355 7.553 Z" fill="#242424"></path>
  <path d="M 34.998 7.553 L 34.998 13.868 C 37.935 14.292 40.172 16.832 40.172 19.901 L 46.43 19.901 C 46.43 13.339 41.396 7.976 34.998 7.553 Z" fill="#242424"></path>
  <path d="M 24.196 35.849 C 21.12 34.332 10.527 28.546 10.038 21.595 L 3.5 21.595 C 3.99 31.968 20.281 40.542 24.161 42.447 L 24.161 35.849 L 24.196 35.849 Z" fill="#242424"></path>
  <path d="M 39.998 21.595 C 39.543 28.546 28.916 34.332 25.839 35.849 L 25.839 42.447 C 29.72 40.542 46.046 31.968 46.5 21.595 L 39.998 21.595 Z" fill="#242424"></path>
</svg>
